<svg width="16" height="16" viewBox="0 0 16 16" fill="none" xmlns="http://www.w3.org/2000/svg">
<g id="star">
<path id="Star 1" d="M7.55252 0.897609C7.73659 0.52838 8.26341 0.528378 8.44748 0.897608L10.2491 4.51155C10.3219 4.65756 10.4613 4.75887 10.6227 4.78298L14.6165 5.37966C15.0245 5.44063 15.1873 5.94166 14.8931 6.23082L12.0127 9.06104C11.8964 9.17538 11.8431 9.33932 11.87 9.50023L12.5367 13.4829C12.6048 13.8898 12.1786 14.1995 11.8127 14.009L8.2309 12.1442C8.08618 12.0689 7.91382 12.0689 7.7691 12.1442L4.18734 14.009C3.82139 14.1995 3.39519 13.8898 3.4633 13.4829L4.12997 9.50023C4.15691 9.33932 4.10364 9.17538 3.98727 9.06104L1.10695 6.23082C0.812668 5.94166 0.975463 5.44063 1.3835 5.37966L5.3773 4.78298C5.53865 4.75887 5.6781 4.65756 5.75089 4.51155L7.55252 0.897609Z" fill="#9C1A30"/>
</g>
</svg>
