<svg width="20" height="21" viewBox="0 0 20 21" fill="none" xmlns="http://www.w3.org/2000/svg">
<path d="M18.6333 0.581728L0.520753 8.97136C0.509977 8.97633 0.49953 8.98227 0.489503 8.98913C0.342628 9.08872 -0.682372 9.83917 0.76294 10.512L0.777784 10.5186L5.09067 12.1864C5.12358 12.1992 5.15842 12.2032 5.19277 12.1982C5.22711 12.1932 5.26013 12.1793 5.2895 12.1574L15.9868 4.16847C16.013 4.14887 16.0422 4.13568 16.0727 4.12966C16.2215 4.1002 16.65 4.04503 16.379 4.45696C16.0723 4.92453 8.76567 12.762 7.95474 13.6312C7.90798 13.6814 7.87904 13.7512 7.87388 13.8262L7.51997 18.8759C7.51993 18.9274 7.52989 18.9781 7.54908 19.0241C7.56827 19.0701 7.59615 19.1102 7.63052 19.141C7.67928 19.1778 7.73662 19.1948 7.79409 19.1896C7.85155 19.1844 7.90609 19.1572 7.94966 19.112L10.5122 16.3707C10.5526 16.3274 10.6043 16.302 10.6585 16.2987C10.7127 16.2953 10.7662 16.3143 10.8102 16.3524L15.2809 20.238L15.2954 20.2497C15.4036 20.3296 16.5723 21.1436 16.9098 19.3257L19.9958 1.76141C20 1.70577 20.0418 1.09419 19.6766 0.732753C19.293 0.354956 18.75 0.545725 18.6684 0.566298C18.6564 0.570311 18.6446 0.57547 18.6333 0.581728Z" fill="#720D1E"/>
</svg>
