<svg width="20" height="21" viewBox="0 0 20 21" fill="none" xmlns="http://www.w3.org/2000/svg">
<path fill-rule="evenodd" clip-rule="evenodd" d="M10.7711 1.57555C15.7542 2.3291 18.0523 4.65963 18.6869 9.59568C18.7457 10.0516 18.5731 10.7376 19.2345 10.7503C19.9257 10.7634 19.7591 10.0873 19.7649 9.63095C19.8235 4.98191 15.702 0.672273 10.9152 0.513244C10.554 0.564353 9.80673 0.268258 9.76013 1.06446C9.72921 1.60111 10.3584 1.51304 10.7711 1.57555Z" fill="#720D1E"/>
<path fill-rule="evenodd" clip-rule="evenodd" d="M18.4612 14.9552C16.7888 13.7949 14.6859 11.5744 13.0472 14.0477C12.5002 14.862 11.7347 14.8975 10.9341 14.5404C8.72722 13.5562 7.02326 12.04 6.02493 9.83391C4.84772 7.09365 7.72975 7.60833 7.67628 5.69787C7.61895 4.65794 5.05129 1.1821 4.03729 0.815253C3.61768 0.663403 3.1998 0.67333 2.77289 0.814408C0.395283 1.60069 -0.589518 3.52383 0.353623 5.80093C3.16737 12.5946 8.11886 17.3241 14.9352 20.2108C15.3238 20.3751 15.7555 20.4407 15.9741 20.4999C17.526 20.5153 19.3438 19.0447 19.8688 17.5854C20.3743 16.1814 19.3062 15.6242 18.4612 14.9552Z" fill="#720D1E"/>
<path fill-rule="evenodd" clip-rule="evenodd" d="M11.7504 2.92509C11.2711 2.86828 10.6382 2.64611 10.5263 3.30039C10.4093 3.98698 11.1145 3.91729 11.5678 4.01697C14.6455 4.69343 15.7171 5.79523 16.2238 8.79758C16.2979 9.23538 16.1508 9.9167 16.9071 9.80371C17.4676 9.71965 17.2653 9.1357 17.3121 8.79462C17.3371 5.91202 14.8254 3.28835 11.7504 2.92509Z" fill="#720D1E"/>
<path fill-rule="evenodd" clip-rule="evenodd" d="M12.0418 5.27062C11.7218 5.27844 11.4078 5.31244 11.2902 5.64866C11.1136 6.1513 11.4851 6.27105 11.8633 6.33082C13.1258 6.53019 13.7902 7.2624 13.9164 8.50064C13.9506 8.83665 14.1675 9.10909 14.4975 9.07065C14.9549 9.01701 14.9964 8.61658 14.9822 8.23622C15.0047 6.84508 13.406 5.23725 12.0418 5.27062Z" fill="#720D1E"/>
</svg>
