<svg width="20" height="21" viewBox="0 0 20 21" fill="none" xmlns="http://www.w3.org/2000/svg">
<path d="M10 0.5C4.47737 0.5 0 4.97829 0 10.5021C0 12.5231 0.600823 14.4082 1.63374 15.9806L0.345679 20.3436L4.87654 19.0882C6.37449 19.9855 8.12757 20.5 10 20.5C15.5226 20.5 20 16.0217 20 10.4979C20 4.97829 15.5226 0.5 10 0.5Z" fill="#720D1E"/>
<path d="M15.4938 13.2475C15.4815 13.1158 15.4033 13.0005 15.284 12.947C14.4774 12.5766 13.6667 12.2061 12.8601 11.8357C12.7696 11.7945 12.6585 11.8151 12.5926 11.8933L11.498 13.1281C11.4115 13.2269 11.2757 13.2598 11.1564 13.2105C10.5885 12.9758 9.82306 12.5807 9.0494 11.9139C8.12348 11.1195 7.58027 10.2675 7.27574 9.71179C7.428 9.60889 7.84364 9.30018 8.02883 8.72805C8.02883 8.72393 8.03294 8.71982 8.03294 8.71982C8.14817 8.36583 8.12348 7.98304 7.9959 7.63317C7.7778 7.05281 7.34158 5.92912 7.17286 5.75624C7.14405 5.72743 7.11113 5.69862 7.11113 5.69862C6.98767 5.58748 6.82718 5.52574 6.65846 5.51751C6.60084 5.51339 6.53911 5.5134 6.47327 5.5134C6.28397 5.50928 6.11525 5.50928 5.99179 5.52574C5.64199 5.57514 5.38685 5.80975 5.22636 6.00732C5.03294 6.24194 4.80249 6.59181 4.65022 7.05281C4.63788 7.09397 4.62553 7.13101 4.61319 7.17217C4.44446 7.75665 4.47738 8.3823 4.67903 8.95855C4.86833 9.49775 5.14405 10.1399 5.55969 10.819C6.26339 11.9756 7.02883 12.6918 7.54734 13.1652C8.13171 13.7044 8.85599 14.3671 10.0041 14.9186C11.0659 15.429 12.0288 15.6184 12.6749 15.6966C12.9383 15.7213 13.4239 15.7254 13.9794 15.5155C14.2346 15.4167 14.4486 15.2973 14.6214 15.1697C15.0782 14.8445 15.3992 14.3547 15.4815 13.8032C15.4815 13.7991 15.4815 13.7949 15.4815 13.7908C15.5103 13.5809 15.5062 13.3998 15.4938 13.2475Z" fill="white"/>
</svg>
